<svg viewBox="0 0 43 43" xmlns="http://www.w3.org/2000/svg" fill-rule="evenodd" clip-rule="evenodd" stroke-linejoin="round" stroke-miterlimit="1.414"><path d="M22.533 34.533c0-.4 0-.666-.133-1.066-.133-.267-.133-.667-.267-.934-.133-.266-.266-.533-.4-.933-.266-.267-.4-.533-.533-.8s-.4-.4-.667-.8l-.666-.667c-.134-.133-.4-.4-.8-.666-.4-.267-.667-.534-.8-.534-.134 0-.4-.266-.8-.533s-.667-.533-.8-.533h-1.334c-.933 0-1.866 0-2.666.133-.934.133-1.867.267-2.8.667-.934.266-1.734.666-2.534 1.2-.8.533-1.333 1.066-1.733 1.866-.4.8-.667 1.734-.667 2.8 0 1.2.267 2.267.934 3.067.666.933 1.466 1.6 2.4 2.133.933.534 2 .934 3.066 1.2 1.067.267 2.134.4 3.2.4 1.067 0 2-.133 2.934-.266C18.4 40 19.2 39.733 20 39.2c.8-.4 1.467-1.067 1.867-1.867.4-.8.666-1.733.666-2.8zM19.467 12.4c0-1.067-.134-2.133-.4-3.333a14.186 14.186 0 0 0-1.2-3.334c-.534-1.066-1.2-2-2.134-2.666C14.8 2.4 13.733 2 12.667 2c-1.6 0-2.8.533-3.734 1.733C8 4.933 7.6 6.267 7.6 8c0 .8.133 1.6.267 2.533.133.934.533 1.734.933 2.667.4.933.933 1.733 1.467 2.4.533.667 1.2 1.333 2 1.733.8.4 1.6.667 2.533.667 1.6 0 2.8-.533 3.6-1.6.667-.933 1.067-2.267 1.067-4zM16.133.267h11.2l-3.466 2H20.4c1.2.8 2.133 1.866 2.8 3.2.667 1.333 1.067 2.8 1.067 4.266 0 1.2-.134 2.4-.534 3.334a10.46 10.46 0 0 1-1.466 2.4c-.534.533-1.067 1.2-1.734 1.6-.533.533-1.066 1.066-1.466 1.6-.4.533-.534 1.066-.534 1.733 0 .4.134.933.4 1.333.267.4.667.8 1.067 1.2.4.4.933.8 1.467 1.2.533.4 1.066.934 1.6 1.467.533.533 1.066 1.067 1.466 1.733.4.667.8 1.334 1.067 2.134.267.8.4 1.733.4 2.666 0 2.8-1.2 5.2-3.6 7.2-2.533 2.267-6.133 3.334-10.8 3.334-1.067 0-2-.134-3.067-.267-1.066-.133-2.133-.4-3.066-.8-1.067-.4-2-.933-2.8-1.467-.8-.533-1.467-1.333-2-2.266-.4-.8-.667-1.734-.667-2.934 0-1.066.267-2.133.933-3.466.534-1.067 1.334-2 2.4-2.8 1.067-.8 2.4-1.467 3.734-1.867 1.333-.4 2.666-.667 4-.933 1.2-.134 2.533-.267 3.866-.4-1.066-1.467-1.6-2.667-1.6-3.867v-.667c0-.133.134-.4.134-.533s.133-.267.266-.533c.134-.267.134-.4.134-.534-.667.134-1.334.134-1.734.134-2.533 0-4.666-.8-6.533-2.534C3.733 15.2 2.933 13.2 2.933 10.667c0-2.4.8-4.534 2.4-6.4 1.6-1.734 3.6-2.934 6-3.467 1.6-.4 3.2-.533 4.8-.533zM42.667 6.8v3.333h-6.534v6.534H32.8v-6.534h-6.533V6.8H32.8V.267h3.333V6.8h6.534z" fill="#fff" fill-rule="nonzero"/></svg>