<svg viewBox="0 0 43 35" xmlns="http://www.w3.org/2000/svg" fill-rule="evenodd" clip-rule="evenodd" stroke-linejoin="round" stroke-miterlimit="1.414"><path d="M42.8 4.133c-1.6.667-3.2 1.2-5.067 1.334 1.867-1.067 3.2-2.8 3.867-4.8C39.867 1.733 38 2.4 36 2.8 34.533 1.067 32.133 0 29.733 0c-4.8 0-8.8 3.867-8.8 8.8 0 .667.134 1.333.267 2-7.333-.4-13.733-3.867-18.133-9.2-.8 1.333-1.2 2.8-1.2 4.4 0 3.067 1.6 5.733 3.866 7.333-1.466 0-2.8-.4-4-1.066v.133c0 4.267 3.067 7.733 7.067 8.533-.8.134-1.467.267-2.267.267-.533 0-1.066 0-1.6-.133 1.067 3.466 4.4 6 8.134 6.133-2.934 2.4-6.8 3.733-10.934 3.733-.666 0-1.466 0-2.133-.133 3.867 2.533 8.533 4 13.467 4C29.6 34.8 38.4 21.467 38.4 9.867V8.8c1.733-1.333 3.2-2.933 4.4-4.667z" fill="#fff" fill-rule="nonzero"/></svg>